<?xml version="1.0" encoding="utf-8"?>
<!-- Generator: Adobe Illustrator 16.0.0, SVG Export Plug-In . SVG Version: 6.00 Build 0)  -->
<!DOCTYPE svg PUBLIC "-//W3C//DTD SVG 1.1//EN" "http://www.w3.org/Graphics/SVG/1.1/DTD/svg11.dtd">
<svg version="1.1" id="图层_1" xmlns="http://www.w3.org/2000/svg" xmlns:xlink="http://www.w3.org/1999/xlink" x="0px" y="0px"
	 width="1024px" height="1024px" viewBox="0 0 1024 1024" enable-background="new 0 0 1024 1024" xml:space="preserve">
<path fill="#080606" d="M831.945,384.008h-64v-128c0-141.385-114.615-256-256-256s-256,114.615-256,256v128h-63.891
	c-35.346,0-64,28.654-64,64v511.984c0,35.348,28.654,64,64,64h639.891c35.347,0,64-28.652,64-64V448.008
	C895.945,412.663,867.292,384.008,831.945,384.008z M383.945,268.29c0-77.654,50.346-140.605,128-140.605s128,62.951,128,140.605
	v115.719h-256V268.29z M575.945,750.881v145.127h-128V750.881c-38.258-22.133-64-63.496-64-110.873c0-70.691,57.308-128,128-128
	c70.693,0,128,57.308,128,128C639.945,687.387,614.204,728.748,575.945,750.881z"/>
</svg>
