<?xml version="1.0" encoding="utf-8"?>
<!-- Generator: Adobe Illustrator 16.0.0, SVG Export Plug-In . SVG Version: 6.00 Build 0)  -->
<!DOCTYPE svg PUBLIC "-//W3C//DTD SVG 1.1//EN" "http://www.w3.org/Graphics/SVG/1.1/DTD/svg11.dtd">
<svg version="1.1" xmlns="http://www.w3.org/2000/svg" xmlns:xlink="http://www.w3.org/1999/xlink" x="0px" y="0px" width="1024px"
	 height="1024px" viewBox="0 0 1024 1024" enable-background="new 0 0 1024 1024" xml:space="preserve">
<g id="图层_1">
</g>
<g id="图层_3" display="none">
	<g display="inline">
		<path fill="#040000" d="M768.062,0.008c-106.039,0-192,85.962-192,192c0,106.039,85.961,192,192,192s192-85.961,192-192
			C960.062,85.97,874.101,0.008,768.062,0.008z M768.062,255.994c-35.339,0-63.985-28.647-63.985-63.986
			c0-35.338,28.646-63.984,63.985-63.984s63.985,28.646,63.985,63.984C832.047,227.347,803.4,255.994,768.062,255.994z"/>
		<path fill="#040000" d="M768.062,639.992c-106.039,0-192,85.962-192,192c0,106.039,85.961,192,192,192s192-85.961,192-192
			C960.062,725.954,874.101,639.992,768.062,639.992z M768.062,895.979c-35.339,0-63.985-28.647-63.985-63.986
			c0-35.338,28.646-63.984,63.985-63.984s63.985,28.646,63.985,63.984C832.047,867.331,803.4,895.979,768.062,895.979z"/>
		<path fill="#040000" d="M192,319.992c-106.039,0-192,85.962-192,192c0,106.039,85.961,192,192,192s192-85.961,192-192
			C384,405.954,298.039,319.992,192,319.992z M192,575.979c-35.339,0-63.985-28.647-63.985-63.986
			c0-35.338,28.646-63.984,63.985-63.984s63.985,28.646,63.985,63.984C255.985,547.331,227.339,575.979,192,575.979z"/>
		
			<rect x="384.062" y="166.912" transform="matrix(0.5107 0.8598 -0.8598 0.5107 527.812 -209.61)" fill="#040000" width="128" height="384"/>
		
			<rect x="384.062" y="473.073" transform="matrix(0.5107 -0.8598 0.8598 0.5107 -352.5663 710.6387)" fill="#040000" width="127.999" height="384"/>
	</g>
</g>
<g id="图层_4" display="none">
	<g display="inline">
		<path fill="#040000" d="M466.4,601.428c-7.821,8.79-11.623,18.934-11.623,31.012c0,12.054,3.186,21.746,9.737,29.631
			c4.892,5.891,12.643,11.054,23.126,15.419V587.73C479.008,590.603,472.001,595.132,466.4,601.428z"/>
		<path fill="#040000" d="M532.436,752.155v101.562c8.938-2.942,16.55-8.063,23.07-15.487c9.107-10.373,13.535-22.982,13.535-38.545
			c0-12.846-3.061-23.115-9.097-30.524C556.442,764.866,548.854,758.754,532.436,752.155z"/>
		<path fill="#040000" d="M640.707,377c-56.997,56.997-270.002,62.997-321,6c0,0-256,68.914-256,351.334
			C63.707,986,220.812,1024,501.297,1024c280.486,0,458.743-46.016,458.743-295.003S726.203,384.499,640.707,377z M601.721,876.753
			c-18.252,19.173-41.526,30.474-69.285,33.668v43.352h-44.795v-43.437c-18.262-2.952-33.678-7.625-45.92-13.928
			c-14.717-7.574-27.508-19.821-38.02-36.4c-10.443-16.47-16.585-36.684-18.254-60.08l-0.634-8.893l61.349-11.524l1.494,10.319
			c3.008,20.77,8.155,35.946,15.299,45.107c7.344,9.277,15.494,15.487,24.686,18.759V740.138
			c-15.736-3.873-31.841-10.396-47.986-19.445c-15.002-8.373-26.742-20.163-34.877-35.035c-8.031-14.677-12.104-31.48-12.104-49.943
			c0-32.811,11.852-59.817,35.227-80.271c14.09-12.389,34.163-20.532,59.74-24.247v-21.268h44.795v21.27
			c22.296,3.359,40.652,10.976,54.661,22.698c20.261,16.83,32.617,40.12,36.701,69.199l1.376,9.806l-63.183,9.512l-1.492-9.884
			c-2.189-14.494-6.604-25.544-13.124-32.842c-4.028-4.504-8.968-8.016-14.939-10.602V689.22
			c17.687,4.563,29.521,8.172,36.063,10.993c14.241,6.274,26.045,14.057,35.154,23.162c9.212,9.216,16.38,20.286,21.31,32.906
			c4.879,12.5,7.352,26.157,7.352,40.597C632.314,828.557,622.021,855.43,601.721,876.753z"/>
		<path fill="#040000" d="M328.707,330.795c6,10.888,184.759,76.631,292.14-17.877c6-76.214,23.741-156.739,40.24-187.847
			s-2.297-80.881-50.295-62.125c-36.417,14.23-68.907,35.028-83.996-2.815C511.707,22.286,511.707,0,475.799,0
			c-23.999,0-50.997,31.776-67.496,66.759c-16.5,34.981-45.266,45.521-70.497,31.871c-34.498-18.665-96.001-6.046-71.996,49.771
			C282.707,187.692,325.333,291.002,328.707,330.795z"/>
	</g>
</g>
<g id="图层_5">
	<g>
		<g>
			<path fill="#040000" d="M831.781,63.059H192.219c-35.346,0-64,28.654-64,64v832c0,35.346,28.654,64,64,64h639.563
				c35.347,0,64-28.654,64-64v-832C895.781,91.713,867.128,63.059,831.781,63.059z M831.781,959.06H191.822v-832h639.959V959.06z"/>
		</g>
		<path fill="#040000" d="M703.781,0.941H192.219c-35.346,0-64,28.653-64,64V831.06c0,35.346,28.654,64,64,64h511.563
			c35.347,0,64-28.654,64-64V64.941C767.781,29.594,739.128,0.941,703.781,0.941z M639.781,255.059h-384v-64h384V255.059z
			 M639.781,382.934h-384v-64h384V382.934z"/>
	</g>
</g>
<g id="图层_2" display="none">
	<g display="inline">
		<path fill="#080606" d="M512.26,128.044c-212.099,0-384.039,171.94-384.039,384.039s171.94,384.039,384.039,384.039
			c212.098,0,384.039-171.94,384.039-384.039S724.357,128.044,512.26,128.044z M512.26,767.637
			c-141.139,0-255.553-114.416-255.553-255.554c0-141.139,114.415-255.553,255.553-255.553
			c141.138,0,255.554,114.414,255.554,255.553C767.813,653.221,653.397,767.637,512.26,767.637z"/>
		<rect x="448.148" y="319.055" fill="#080606" width="128" height="193.028"/>
		
			<rect x="514.648" y="485.222" transform="matrix(0.7071 -0.7071 0.7071 0.7071 -241.8677 579.5479)" fill="#080606" width="127.999" height="193.028"/>
		<path fill="#080606" d="M448.148,512.083c0,25.639,1.843,31.507,16.999,46.662s113.5-46.662,113.5-46.662l-66.388-24.361
			L448.148,512.083z"/>
		<path fill="#080606" d="M218.73,715.103l90.51,90.51l-90.51,90.51c0,0-33.833-5.317-59.583-31.067s-30.927-59.442-30.927-59.442
			L218.73,715.103z"/>
		<path fill="#080606" d="M805.789,715.103l-90.51,90.51l90.51,90.51c0,0,33.832-5.317,59.582-31.067s30.928-59.442,30.928-59.442
			L805.789,715.103z"/>
		<g>
			<path fill="#080606" d="M118.653,344.581c43.232-101.461,124.546-182.795,225.992-226.056
				c-29.353-33.392-72.376-54.471-120.329-54.471c-88.458,0-160.167,71.71-160.167,160.167
				C64.148,272.19,85.242,315.228,118.653,344.581z"/>
		</g>
		<g>
			<path fill="#080606" d="M905.598,344.581C862.365,243.12,781.051,161.786,679.605,118.525
				c29.354-33.392,72.377-54.471,120.329-54.471c88.458,0,160.167,71.71,160.167,160.167
				C960.102,272.19,939.008,315.228,905.598,344.581z"/>
		</g>
	</g>
</g>
</svg>
