<?xml version="1.0" encoding="utf-8"?>
<!-- Generator: Adobe Illustrator 16.0.0, SVG Export Plug-In . SVG Version: 6.00 Build 0)  -->
<!DOCTYPE svg PUBLIC "-//W3C//DTD SVG 1.1//EN" "http://www.w3.org/Graphics/SVG/1.1/DTD/svg11.dtd">
<svg version="1.1" id="图层_1" xmlns="http://www.w3.org/2000/svg" xmlns:xlink="http://www.w3.org/1999/xlink" x="0px" y="0px"
	 width="1024px" height="1024px" viewBox="0 0 1024 1024" enable-background="new 0 0 1024 1024" xml:space="preserve">
<g>
	<path fill="#080606" d="M512.135,191.97c-212.099,0-384.039,171.94-384.039,384.039c0,82.943,26.296,159.745,71.004,222.525
		l-71.004,71.004c0,0,5.177,33.692,30.927,59.442s59.583,31.067,59.583,31.067l71.004-71.004
		c62.78,44.708,139.582,71.004,222.525,71.004c82.943,0,159.745-26.296,222.524-71.004l71.005,71.004
		c0,0,33.832-5.317,59.582-31.067s30.928-59.442,30.928-59.442l-71.005-71.004c44.709-62.78,71.005-139.582,71.005-222.525
		C896.174,363.91,724.232,191.97,512.135,191.97z M512.135,831.563c-141.139,0-255.553-114.416-255.553-255.554
		c0-141.139,114.415-255.553,255.553-255.553c141.138,0,255.554,114.414,255.554,255.553
		C767.688,717.146,653.272,831.563,512.135,831.563z"/>
	<path fill="#080606" d="M576.023,382.98h-128v193.028c0,25.639,1.843,31.507,16.999,46.662l136.492,136.491l90.51-90.509l-116-116
		V382.98z"/>
	<path fill="#080606" d="M344.52,182.451c-29.353-33.392-72.376-54.471-120.329-54.471c-88.458,0-160.167,71.71-160.167,160.167
		c0,47.969,21.094,91.006,54.504,120.359C161.76,307.046,243.074,225.712,344.52,182.451z"/>
	<path fill="#080606" d="M799.81,127.98c-47.952,0-90.976,21.079-120.329,54.471c101.445,43.261,182.76,124.595,225.992,226.056
		c33.41-29.354,54.504-72.391,54.504-120.359C959.977,199.69,888.268,127.98,799.81,127.98z"/>
</g>
</svg>
