<?xml version="1.0" encoding="utf-8"?>
<!-- Generator: Adobe Illustrator 16.0.0, SVG Export Plug-In . SVG Version: 6.00 Build 0)  -->
<!DOCTYPE svg PUBLIC "-//W3C//DTD SVG 1.1//EN" "http://www.w3.org/Graphics/SVG/1.1/DTD/svg11.dtd">
<svg version="1.1" id="图层_1" xmlns="http://www.w3.org/2000/svg" xmlns:xlink="http://www.w3.org/1999/xlink" x="0px" y="0px"
	 width="1024px" height="1024px" viewBox="0 0 1024 1024" enable-background="new 0 0 1024 1024" xml:space="preserve">
<g>
	<polygon fill="#040000" points="768,896.086 256,896.086 256,501.121 512,245.262 708.516,441.67 799.174,351.309 602.534,154.777 
		602.79,154.521 512.28,64.012 512,64.292 511.72,64.012 421.21,154.521 421.466,154.777 0,576.012 90.509,666.521 128.533,628.518 
		128.534,1024 896,1024 896,832.012 768,832.012 	"/>
	<path fill="#040000" d="M1024,609.424L767.978,447.029v98.451c-239.479,0-319.645,222.697-319.645,222.697L512,768.043
		c121.756-117.189,256.023-95.219,256.023-95.219v95.188L1024,609.424z"/>
</g>
</svg>
