<?xml version="1.0" encoding="utf-8"?>
<!-- Generator: Adobe Illustrator 16.0.0, SVG Export Plug-In . SVG Version: 6.00 Build 0)  -->
<!DOCTYPE svg PUBLIC "-//W3C//DTD SVG 1.1//EN" "http://www.w3.org/Graphics/SVG/1.1/DTD/svg11.dtd">
<svg version="1.1" id="图层_1" xmlns="http://www.w3.org/2000/svg" xmlns:xlink="http://www.w3.org/1999/xlink" x="0px" y="0px"
	 width="1024px" height="1024px" viewBox="0 0 1024 1024" enable-background="new 0 0 1024 1024" xml:space="preserve">
<path fill="#040000" d="M768.03,639.986c-54.242,0-103.224,22.502-138.14,58.668l-249.75-148.354
	c2.508-12.381,3.828-25.193,3.828-38.314c0-13.12-1.32-25.933-3.828-38.313l249.74-148.349
	c34.917,36.174,83.902,58.678,138.149,58.678c106.039,0,192-85.961,192-192c0-106.038-85.961-192-192-192s-192,85.962-192,192
	c0,5.4,0.234,10.745,0.672,16.032l-262.469,155.91c-33.208-27.458-75.809-43.958-122.265-43.958c-106.039,0-192,85.962-192,192
	c0,106.039,85.961,192,192,192c46.455,0,89.056-16.5,122.265-43.957l262.47,155.91c-0.438,5.293-0.673,10.643-0.673,16.047
	c0,106.039,85.961,192,192,192s192-85.961,192-192C960.03,725.949,874.069,639.986,768.03,639.986z M768.03,128.018
	c35.339,0,63.985,28.646,63.985,63.984c0,35.339-28.646,63.986-63.985,63.986s-63.985-28.647-63.985-63.986
	C704.045,156.665,732.691,128.018,768.03,128.018z M191.969,575.973c-35.339,0-63.985-28.646-63.985-63.986
	c0-35.338,28.646-63.984,63.985-63.984s63.985,28.646,63.985,63.984C255.954,547.326,227.308,575.973,191.969,575.973z
	 M768.03,895.973c-35.339,0-63.985-28.646-63.985-63.986c0-35.338,28.646-63.984,63.985-63.984s63.985,28.646,63.985,63.984
	C832.016,867.326,803.369,895.973,768.03,895.973z"/>
</svg>
