<?xml version="1.0" encoding="utf-8"?>
<!-- Generator: Adobe Illustrator 16.0.0, SVG Export Plug-In . SVG Version: 6.00 Build 0)  -->
<!DOCTYPE svg PUBLIC "-//W3C//DTD SVG 1.1//EN" "http://www.w3.org/Graphics/SVG/1.1/DTD/svg11.dtd">
<svg version="1.1" id="图层_1" xmlns="http://www.w3.org/2000/svg" xmlns:xlink="http://www.w3.org/1999/xlink" x="0px" y="0px"
	 width="1024px" height="1024px" viewBox="0 0 1024 1024" enable-background="new 0 0 1024 1024" xml:space="preserve">
<g>
	<path fill="#080606" d="M442.7,256.5v256.886c0,25.64,1.843,31.506,16.999,46.663c0.02,0.021,0.045,0.035,0.064,0.056
		l181.589,181.588l90.509-90.508L570.7,490.022V256.5H442.7z"/>
	<path fill="#080606" d="M509.208,58.626c-138.297,0-262.033,62.296-344.713,160.347l-70.582-66.991l-53.195,290.69l287.517-68.293
		l-70.83-67.225c59.189-73.625,149.982-120.76,251.803-120.76c178.365,0,322.96,144.594,322.96,322.96
		c0,178.365-144.595,322.961-322.96,322.961c-177.313,0-321.229-142.9-322.921-319.814H58.501
		c1.693,247.48,202.828,447.582,450.708,447.582c248.931,0,450.729-201.799,450.729-450.729
		C959.937,260.423,758.138,58.626,509.208,58.626z"/>
</g>
</svg>
