<?xml version="1.0" encoding="utf-8"?>
<!-- Generator: Adobe Illustrator 16.0.0, SVG Export Plug-In . SVG Version: 6.00 Build 0)  -->
<!DOCTYPE svg PUBLIC "-//W3C//DTD SVG 1.1//EN" "http://www.w3.org/Graphics/SVG/1.1/DTD/svg11.dtd">
<svg version="1.1" id="图层_1" xmlns="http://www.w3.org/2000/svg" xmlns:xlink="http://www.w3.org/1999/xlink" x="0px" y="0px"
	 width="1024px" height="1024px" viewBox="0 0 1024 1024" enable-background="new 0 0 1024 1024" xml:space="preserve">
<g>
	<g>
		<polygon fill="#040000" points="511.925,510.285 512.521,509.685 511.33,509.685 		"/>
		<path fill="#040000" d="M448.009,483.47l0.14-483.466C195.575,31.547,0.077,247.765,0,509.87
			c-0.033,118.547,39.921,227.726,107.058,314.698L448.009,483.47z"/>
		<path fill="#040000" d="M510.899,601.487l-313.736,313.87c86.805,68.044,196.024,108.606,314.688,108.642
			c118.116,0.033,226.896-40.092,313.543-107.516L510.899,601.487z"/>
	</g>
	<g>
		<path fill="#040000" d="M675.777,130.049c54.515,23.756,103.778,59.359,144.078,104.846
			c32.899,37.133,58.604,79.324,76.403,125.404c18.424,47.695,27.757,98.109,27.742,149.841
			c-0.014,47.023-7.787,93.108-23.104,136.974c-1.917,5.489-3.945,10.929-6.087,16.32L675.687,443.96L675.777,130.049 M575.814,0
			l-0.14,485.322l340.148,340.695c67.752-87.13,108.144-196.752,108.178-315.849C1024.077,247.949,828.53,31.542,575.814,0
			L575.814,0z"/>
	</g>
</g>
</svg>
