<?xml version="1.0" encoding="utf-8"?>
<!-- Generator: Adobe Illustrator 16.0.0, SVG Export Plug-In . SVG Version: 6.00 Build 0)  -->
<!DOCTYPE svg PUBLIC "-//W3C//DTD SVG 1.1//EN" "http://www.w3.org/Graphics/SVG/1.1/DTD/svg11.dtd">
<svg version="1.1" xmlns="http://www.w3.org/2000/svg" xmlns:xlink="http://www.w3.org/1999/xlink" x="0px" y="0px" width="1024px"
	 height="1024px" viewBox="0 0 1024 1024" enable-background="new 0 0 1024 1024" xml:space="preserve">
<g id="图层_1">
</g>
<g id="图层_3" display="none">
	<g display="inline">
		<path fill="#040000" d="M768.062,0.008c-106.039,0-192,85.962-192,192c0,106.039,85.961,192,192,192s192-85.961,192-192
			C960.062,85.97,874.101,0.008,768.062,0.008z M768.062,255.994c-35.339,0-63.985-28.647-63.985-63.986
			c0-35.338,28.646-63.984,63.985-63.984s63.985,28.646,63.985,63.984C832.047,227.347,803.4,255.994,768.062,255.994z"/>
		<path fill="#040000" d="M768.062,639.992c-106.039,0-192,85.962-192,192c0,106.039,85.961,192,192,192s192-85.961,192-192
			C960.062,725.954,874.101,639.992,768.062,639.992z M768.062,895.979c-35.339,0-63.985-28.647-63.985-63.986
			c0-35.338,28.646-63.984,63.985-63.984s63.985,28.646,63.985,63.984C832.047,867.331,803.4,895.979,768.062,895.979z"/>
		<path fill="#040000" d="M192,319.992c-106.039,0-192,85.962-192,192c0,106.039,85.961,192,192,192s192-85.961,192-192
			C384,405.954,298.039,319.992,192,319.992z M192,575.979c-35.339,0-63.985-28.647-63.985-63.986
			c0-35.338,28.646-63.984,63.985-63.984s63.985,28.646,63.985,63.984C255.985,547.331,227.339,575.979,192,575.979z"/>
		
			<rect x="384.062" y="166.912" transform="matrix(0.5107 0.8598 -0.8598 0.5107 527.812 -209.61)" fill="#040000" width="128" height="384"/>
		
			<rect x="384.062" y="473.073" transform="matrix(0.5107 -0.8598 0.8598 0.5107 -352.5663 710.6387)" fill="#040000" width="127.999" height="384"/>
	</g>
</g>
<g id="图层_4" display="none">
	<g display="inline">
		<path fill="#040000" d="M466.4,601.428c-7.821,8.79-11.623,18.934-11.623,31.012c0,12.054,3.186,21.746,9.737,29.631
			c4.892,5.891,12.643,11.054,23.126,15.419V587.73C479.008,590.603,472.001,595.132,466.4,601.428z"/>
		<path fill="#040000" d="M532.436,752.155v101.562c8.938-2.942,16.55-8.063,23.07-15.487c9.107-10.373,13.535-22.982,13.535-38.545
			c0-12.846-3.061-23.115-9.097-30.524C556.442,764.866,548.854,758.754,532.436,752.155z"/>
		<path fill="#040000" d="M640.707,377c-56.997,56.997-270.002,62.997-321,6c0,0-256,68.914-256,351.334
			C63.707,986,220.812,1024,501.297,1024c280.486,0,458.743-46.016,458.743-295.003S726.203,384.499,640.707,377z M601.721,876.753
			c-18.252,19.173-41.526,30.474-69.285,33.668v43.352h-44.795v-43.437c-18.262-2.952-33.678-7.625-45.92-13.928
			c-14.717-7.574-27.508-19.821-38.02-36.4c-10.443-16.47-16.585-36.684-18.254-60.08l-0.634-8.893l61.349-11.524l1.494,10.319
			c3.008,20.77,8.155,35.946,15.299,45.107c7.344,9.277,15.494,15.487,24.686,18.759V740.138
			c-15.736-3.873-31.841-10.396-47.986-19.445c-15.002-8.373-26.742-20.163-34.877-35.035c-8.031-14.677-12.104-31.48-12.104-49.943
			c0-32.811,11.852-59.817,35.227-80.271c14.09-12.389,34.163-20.532,59.74-24.247v-21.268h44.795v21.27
			c22.296,3.359,40.652,10.976,54.661,22.698c20.261,16.83,32.617,40.12,36.701,69.199l1.376,9.806l-63.183,9.512l-1.492-9.884
			c-2.189-14.494-6.604-25.544-13.124-32.842c-4.028-4.504-8.968-8.016-14.939-10.602V689.22
			c17.687,4.563,29.521,8.172,36.063,10.993c14.241,6.274,26.045,14.057,35.154,23.162c9.212,9.216,16.38,20.286,21.31,32.906
			c4.879,12.5,7.352,26.157,7.352,40.597C632.314,828.557,622.021,855.43,601.721,876.753z"/>
		<path fill="#040000" d="M328.707,330.795c6,10.888,184.759,76.631,292.14-17.877c6-76.214,23.741-156.739,40.24-187.847
			s-2.297-80.881-50.295-62.125c-36.417,14.23-68.907,35.028-83.996-2.815C511.707,22.286,511.707,0,475.799,0
			c-23.999,0-50.997,31.776-67.496,66.759c-16.5,34.981-45.266,45.521-70.497,31.871c-34.498-18.665-96.001-6.046-71.996,49.771
			C282.707,187.692,325.333,291.002,328.707,330.795z"/>
	</g>
</g>
<g id="图层_5" display="none">
	<g display="inline">
		<g>
			<path fill="#040000" d="M831.781,63.059H192.219c-35.346,0-64,28.654-64,64v832c0,35.346,28.654,64,64,64h639.563
				c35.347,0,64-28.654,64-64v-832C895.781,91.713,867.128,63.059,831.781,63.059z M831.781,959.06H191.822v-832h639.959V959.06z"/>
		</g>
		<path fill="#040000" d="M703.781,0.941H192.219c-35.346,0-64,28.653-64,64V831.06c0,35.346,28.654,64,64,64h511.563
			c35.347,0,64-28.654,64-64V64.941C767.781,29.594,739.128,0.941,703.781,0.941z M639.781,255.059h-384v-64h384V255.059z
			 M639.781,382.934h-384v-64h384V382.934z"/>
	</g>
</g>
<g id="图层_6" display="none">
	<path display="inline" d="M1024,640.496V383.503H873.758c-4.24-11.871-9.048-23.472-14.392-34.77l106.792-105.8L785.283,60.369
		L678.139,166.521c-12.204-5.853-24.766-11.08-37.643-15.638V0H383.504v151.242c-11.635,4.155-23.011,8.854-34.096,14.071
		L242.935,57.843L60.369,238.715l106.473,107.471c-5.832,12.099-11.041,24.554-15.6,37.317H0v256.993h150.883
		c4.158,11.745,8.87,23.229,14.107,34.416L57.843,781.065l180.872,182.566L345.51,857.827c12.313,5.964,24.992,11.287,37.994,15.931
		V1024h256.992V874.117c11.982-4.241,23.689-9.063,35.091-14.428l105.479,106.468l182.566-180.873L858.155,678.819
		c5.985-12.417,11.319-25.207,15.962-38.323H1024z M512.5,704.961c-106.292,0-192.461-86.169-192.461-192.461
		S406.208,320.04,512.5,320.04s192.461,86.168,192.461,192.46S618.792,704.961,512.5,704.961z"/>
</g>
<g id="图层_7" display="none">
	<g display="inline">
		<polygon fill="#040000" points="799.174,351.309 511.72,64.012 421.21,154.521 708.516,441.67 		"/>
		<g>
			<polygon fill="#040000" points="768,832.012 768,896.086 256,896.086 256,500.299 128.533,500.299 128.534,1024 896,1024 
				896,832.012 			"/>
			<path fill="#040000" d="M448.333,768.178c0,0,80.166-222.697,319.645-222.697v-98.451L1024,609.424L768.023,768.012v-95.188
				c0,0-134.268-21.971-256.023,95.219L448.333,768.178z"/>
		</g>
		<polygon fill="#040000" points="602.79,154.521 90.509,666.521 0,576.012 512.28,64.012 		"/>
	</g>
</g>
<g id="图层_8" display="none">
	<g display="inline">
		<path fill="#080606" d="M191.782,699.24c0-35.347-28.654-64-64-64H64.217c-35.347,0-64,28.653-64,64v131.5
			c0,35.347,28.653,64,64,64h63.565c35.346,0,64-28.653,64-64V699.24z"/>
		<path fill="#080606" d="M1023.782,699.24c0-35.347-28.654-64-64-64h-63.567c-35.345,0-64,28.653-64,64v131.5
			c0,35.347,28.655,64,64,64h63.567c35.346,0,64-28.653,64-64V699.24z"/>
		<path fill="#080606" d="M960.217,382.77h-896c-35.347,0-64,28.653-64,64V702.74c0,35.348,28.653,64,64,64h896
			c35.347,0,64-28.652,64-64V446.77C1024.217,411.423,995.563,382.77,960.217,382.77z M255.964,575.27
			c0,35.438-28.729,64.168-64.167,64.168h-0.029c-35.438,0-64.167-28.729-64.167-64.168v-0.028
			c0-35.438,28.729-64.168,64.167-64.168h0.029c35.438,0,64.167,28.729,64.167,64.168V575.27z M896.362,574.937
			c0,35.438-28.729,64.168-64.167,64.168h-0.029c-35.438,0-64.168-28.729-64.168-64.168v-0.028
			c0-35.438,28.729-64.168,64.168-64.168h0.029c35.438,0,64.167,28.729,64.167,64.168V574.937z"/>
		<path fill="#080606" d="M1005.327,358.66c-15.919-21.809-173.545-231.92-173.545-231.92c-27-37.5-73-64-128-64h-384
			c-55,0-101,26.5-128,64c0,0-152.922,205.649-172.353,230.325C-0.001,381.74-0.001,398.74-0.001,398.74l-0.217,48h512l0,0h512.435
			l-0.219-31.999C1023.998,414.741,1023.998,384.24,1005.327,358.66z M511.782,382.74L511.782,382.74l-320,0.003l106.666-149.337
			c18-25,48.668-42.666,85.334-42.666h256c36.667,0,67.333,17.666,85.333,42.666L831.783,382.77L511.782,382.74z"/>
	</g>
</g>
<g id="图层_9">
	<path fill="#080606" d="M896,0H128C57.307,0,0,57.308,0,128v768c0,70.692,57.307,128,128,128h768c70.691,0,128-57.308,128-128V128
		C1024,57.308,966.691,0,896,0z M640.016,512H448.008v128h192.008v128H448.008v128.008h-128V768H128V640h192.008V512H128V384h128
		v-0.008h0.008L128,127.992h128L384.002,383.98l128.002-255.988h128l-128.008,256H512V384h128.016V512z M768,127.984h128V704H768
		V127.984z M832.171,896.008c-35.256,0-63.837-28.581-63.837-63.837s28.581-63.837,63.837-63.837s63.837,28.581,63.837,63.837
		S867.427,896.008,832.171,896.008z"/>
</g>
<g id="图层_2" display="none">
	<g display="inline">
		<path fill="#080606" d="M512.26,128.044c-212.099,0-384.039,171.94-384.039,384.039s171.94,384.039,384.039,384.039
			c212.098,0,384.039-171.94,384.039-384.039S724.357,128.044,512.26,128.044z M512.26,767.637
			c-141.139,0-255.553-114.416-255.553-255.554c0-141.139,114.415-255.553,255.553-255.553
			c141.138,0,255.554,114.414,255.554,255.553C767.813,653.221,653.397,767.637,512.26,767.637z"/>
		<rect x="448.148" y="319.055" fill="#080606" width="128" height="193.028"/>
		
			<rect x="514.648" y="485.222" transform="matrix(0.7071 -0.7071 0.7071 0.7071 -241.8677 579.5479)" fill="#080606" width="127.999" height="193.028"/>
		<path fill="#080606" d="M448.148,512.083c0,25.639,1.843,31.507,16.999,46.662s113.5-46.662,113.5-46.662l-66.388-24.361
			L448.148,512.083z"/>
		<path fill="#080606" d="M218.73,715.103l90.51,90.51l-90.51,90.51c0,0-33.833-5.317-59.583-31.067s-30.927-59.442-30.927-59.442
			L218.73,715.103z"/>
		<path fill="#080606" d="M805.789,715.103l-90.51,90.51l90.51,90.51c0,0,33.832-5.317,59.582-31.067s30.928-59.442,30.928-59.442
			L805.789,715.103z"/>
		<g>
			<path fill="#080606" d="M118.653,344.581c43.232-101.461,124.546-182.795,225.992-226.056
				c-29.353-33.392-72.376-54.471-120.329-54.471c-88.458,0-160.167,71.71-160.167,160.167
				C64.148,272.19,85.242,315.228,118.653,344.581z"/>
		</g>
		<g>
			<path fill="#080606" d="M905.598,344.581C862.365,243.12,781.051,161.786,679.605,118.525
				c29.354-33.392,72.377-54.471,120.329-54.471c88.458,0,160.167,71.71,160.167,160.167
				C960.102,272.19,939.008,315.228,905.598,344.581z"/>
		</g>
	</g>
</g>
</svg>
